<?xml version="1.0" encoding="UTF-8"?>
<!DOCTYPE svg PUBLIC "-//W3C//DTD SVG 1.1//EN" "http://www.w3.org/Graphics/SVG/1.1/DTD/svg11.dtd">
<!-- Creator: CorelDRAW 2020 (64 Bit) -->
<svg xmlns="http://www.w3.org/2000/svg" xml:space="preserve" width="235.33mm" height="113.4mm" version="1.1" style="shape-rendering:geometricPrecision; text-rendering:geometricPrecision; image-rendering:optimizeQuality; fill-rule:evenodd; clip-rule:evenodd"
viewBox="0 0 23518.73 11333.16"
 xmlns:xlink="http://www.w3.org/1999/xlink"
 xmlns:xodm="http://www.corel.com/coreldraw/odm/2003">
 <defs>
  <style type="text/css">
   <![CDATA[
    .fil0 {fill:#FEFEFE}
    .fil1 {fill:#99FF00}
    .fil2 {fill:#FEFEFE;fill-rule:nonzero}
    .fil3 {fill:#99FF00;fill-rule:nonzero}
   ]]>
  </style>
 </defs>
 <g id="Camada_x0020_1">
  <metadata id="CorelCorpID_0Corel-Layer"/>
  <path class="fil0" d="M3230.73 2748.67c561,0 2748.67,702.98 2748.67,2851.23l0 5733.25 -2748.67 0 0 -8584.48z"/>
  <path class="fil1" d="M3230.73 2748.67c0,-560.99 702.98,-2748.67 2851.23,-2748.67l3128.15 0 0 2748.67 -5979.38 0z"/>
  <path class="fil1" d="M3230.73 2748.67c0,561 -702.97,2748.67 -2851.22,2748.67l-379.51 0 0 -2748.67 3230.73 0z"/>
  <path class="fil2" d="M7559.48 7295.38l2470.21 0c27.83,-132.21 41.74,-271.38 41.74,-417.51 0,-1050.7 -751.49,-1837 -1767.42,-1837 -1099.41,0 -1850.91,800.2 -1850.91,1837 0,1036.79 737.58,1837.01 1927.45,1837.01 661.05,0 1175.96,-243.54 1516.92,-716.72l-835 -480.12c-139.17,153.08 -382.71,264.41 -667.99,264.41 -382.71,0 -702.79,-125.24 -835,-487.07zm-20.88 -779.34c97.42,-354.87 361.84,-549.71 758.46,-549.71 313.13,0 626.25,146.12 737.58,549.71l-1496.04 0zm4816.12 -1475.17c-459.25,0 -807.17,167 -995.05,424.45l0 -327.03 -1043.75 0 0 3479.16 1043.75 0 0 -1899.63c0,-494.04 264.42,-716.71 647.13,-716.71 334,0 605.37,201.8 605.37,633.21l0 1983.13 1043.75 0 0 -2136.2c0,-939.38 -598.42,-1440.38 -1301.2,-1440.38zm3709.74 0c-459.25,0 -807.17,167 -995.05,424.45l0 -327.03 -1043.75 0 0 3479.16 1043.75 0 0 -1899.63c0,-494.04 264.42,-716.71 647.13,-716.71 334,0 605.37,201.8 605.37,633.21l0 1983.13 1043.75 0 0 -2136.2c0,-939.38 -598.42,-1440.38 -1301.2,-1440.38zm3709.74 1099.41l0 -1001.99 -716.72 0 0 -974.17 -1043.75 313.12 0 661.05 -556.66 0 0 1001.99 556.66 0 0 1231.62c0,974.17 396.63,1384.71 1760.46,1245.54l0 -946.34c-459.25,27.83 -716.72,0 -716.72,-299.21l0 -1231.62 716.72 0zm2700.78 -1001.99l0 327.03c-229.63,-264.41 -570.58,-424.45 -1036.79,-424.45 -911.55,0 -1663.04,800.2 -1663.04,1837 0,1036.79 751.49,1837.01 1663.04,1837.01 466.21,0 807.16,-160.04 1036.79,-424.46l0 327.04 1043.75 0 0 -3479.16 -1043.75 0zm-828.05 2588.49c-480.12,0 -828.04,-327.04 -828.04,-848.92 0,-521.87 347.92,-848.92 828.04,-848.92 480.13,0 828.05,327.04 828.05,848.92 0,521.87 -347.92,848.92 -828.05,848.92z"/>
  <path class="fil3" d="M11361.48 9388.94c-142.96,0 -279.53,68.29 -356.35,217.66 -55.48,-140.83 -177.11,-217.66 -332.89,-217.66 -136.57,0 -264.6,59.75 -343.55,206.99l0 -183.52 -106.7 0 0 1066.94 106.7 0 0 -595.36c0,-273.13 155.78,-392.63 330.75,-392.63 164.31,0 273.13,108.83 273.13,311.55l0 676.44 106.7 0 0 -595.36c0,-273.13 140.83,-392.63 320.09,-392.63 166.44,0 283.81,108.83 283.81,311.55l0 676.44 106.7 0 0 -676.44c0,-266.74 -162.18,-413.98 -388.37,-413.98zm1628.16 23.48l0 241.13c-89.63,-160.04 -253.94,-264.61 -458.79,-264.61 -303.01,0 -552.67,241.13 -552.67,556.94 0,315.82 249.67,556.95 552.67,556.95 204.86,0 369.17,-104.57 458.79,-264.61l0 241.13 108.82 0 0 -1066.94 -108.82 0zm-450.25 987.99c-253.94,0 -452.39,-200.59 -452.39,-454.52 0,-253.93 198.45,-454.51 452.39,-454.51 253.93,0 450.25,200.59 450.25,454.51 0,253.94 -196.32,454.52 -450.25,454.52zm994.39 -778.87l0 -209.12 -106.7 0 0 1066.94 106.7 0 0 -593.22c0,-273.13 172.85,-386.24 356.35,-386.24l0 -102.43c-145.1,0 -283.81,55.49 -356.35,224.06zm1389.16 857.82l-595.35 -554.81 574.01 -512.13 -149.37 0 -539.87 484.4 0 -911.18 -106.7 0 0 1493.72 106.7 0 0 -524.93 565.48 524.93 145.1 0zm586.81 -1090.42c-326.48,0 -552.67,243.26 -552.67,556.94 0,322.22 232.6,556.95 561.22,556.95 211.25,0 377.69,-96.03 465.18,-241.13l-93.88 -55.48c-61.88,113.09 -194.18,194.18 -369.17,194.18 -243.26,0 -426.78,-157.9 -452.39,-399.04l966.65 0c0,-17.07 2.13,-34.14 2.13,-51.21 0,-292.34 -202.72,-561.22 -527.07,-561.22zm0 102.43c209.12,0 392.64,145.1 416.11,405.44l-857.82 0c21.34,-236.87 198.45,-405.44 441.71,-405.44zm1291 25.6l0 -104.56 -317.95 0 0 -298.75 -108.82 32.01 0 266.74 -234.73 0 0 104.56 234.73 0 0 693.52c0,243.26 147.24,311.54 426.77,268.87l0 -96.02c-217.65,19.2 -317.95,14.93 -317.95,-172.85l0 -693.52 317.95 0zm309.42 -362.76c46.94,0 85.36,-38.41 85.36,-85.35 0,-44.81 -38.42,-83.23 -85.36,-83.23 -46.95,0 -85.36,38.42 -85.36,83.23 0,46.94 38.41,85.35 85.36,85.35zm-53.35 1325.15l106.7 0 0 -1066.94 -106.7 0 0 1066.94zm923.98 -1090.42c-164.31,0 -300.89,68.29 -381.97,226.19l0 -202.72 -106.7 0 0 1066.94 106.7 0 0 -563.35c0,-288.08 164.31,-424.64 373.42,-424.64 200.59,0 313.69,128.03 313.69,324.35l0 663.64 108.82 0 0 -663.64c0,-258.2 -160.04,-426.78 -413.97,-426.78zm1662.29 23.48l0 247.53c-87.49,-164.31 -251.8,-271.01 -458.78,-271.01 -305.15,0 -552.68,241.13 -552.68,556.94 0,315.82 247.53,556.95 552.68,556.95 206.98,0 371.29,-106.7 458.78,-271.01l0 196.32c0,243.26 -157.9,399.03 -424.64,399.03 -234.73,0 -354.23,-93.88 -409.71,-206.98l-93.88 53.35c76.81,155.78 253.93,256.06 503.59,256.06 294.47,0 531.34,-181.38 531.34,-501.46l0 -1015.73 -106.7 0zm-452.39 987.99c-253.94,0 -452.39,-200.59 -452.39,-454.52 0,-253.93 198.45,-454.51 452.39,-454.51 253.94,0 452.39,200.59 452.39,454.51 0,253.94 -198.45,454.52 -452.39,454.52z"/>
 </g>
</svg>
